<?xml version="1.0" encoding="iso-8859-1"?>
<!-- Generator: Adobe Illustrator 19.0.0, SVG Export Plug-In . SVG Version: 6.00 Build 0)  -->
<svg version="1.1" id="Layer_1" xmlns="http://www.w3.org/2000/svg" xmlns:xlink="http://www.w3.org/1999/xlink" x="0px" y="0px"
	 viewBox="0 0 481.882 481.882" style="enable-background:new 0 0 481.882 481.882;" xml:space="preserve">
<path style="fill:#FCD462;" d="M469.835,210.824L137.336,312.019L93.365,72.282h371.652c9.035,0,16.866,7.228,16.866,16.866v106.014
	C481.882,202.391,477.064,209.016,469.835,210.824z"/>
<path style="fill:#64798A;" d="M467.426,385.506H180.104c-20.48,0-38.551-13.854-43.369-33.732v-1.205L78.306,40.358
	c-1.807-6.626-8.433-11.445-15.661-11.445H14.456C6.626,28.913,0,22.287,0,14.456S6.626,0,14.456,0h48.791
	c20.48,0,38.551,13.854,43.369,33.732v1.205l57.826,310.212c1.807,6.626,8.433,11.445,15.661,11.445h287.322
	c7.831,0,14.456,6.626,14.456,14.456C481.882,378.88,475.257,385.506,467.426,385.506z"/>
<g>
	<polygon style="fill:#F6C358;" points="178.899,98.786 178.899,271.661 187.332,269.252 187.332,98.786 	"/>
	<polygon style="fill:#F6C358;" points="228.894,98.786 228.894,256.602 237.327,254.193 237.327,98.786 	"/>
	<polygon style="fill:#F6C358;" points="278.889,98.786 278.889,241.544 286.72,238.532 286.72,98.786 	"/>
	<polygon style="fill:#F6C358;" points="328.885,98.786 328.885,225.882 336.715,223.473 336.715,98.786 	"/>
	<polygon style="fill:#F6C358;" points="378.88,98.786 378.88,210.824 386.711,208.414 386.711,98.786 	"/>
	<polygon style="fill:#F6C358;" points="428.273,98.786 428.273,195.765 436.706,193.355 436.706,98.786 	"/>
</g>
<path style="fill:#2F4859;" d="M222.871,393.939c-24.094,0-43.972,19.878-43.972,43.972s19.878,43.972,43.972,43.972
	s43.972-19.878,43.972-43.972S246.965,393.939,222.871,393.939z M222.871,466.824c-16.264,0-28.913-13.252-28.913-28.913
	c0-16.264,13.252-28.913,28.913-28.913c16.264,0,28.913,13.252,28.913,28.913C251.784,454.174,239.134,466.824,222.871,466.824z"/>
<path style="fill:#3A556A;" d="M222.871,408.998c-16.264,0-28.913,13.252-28.913,28.913c0,16.264,13.252,28.913,28.913,28.913
	c16.264,0,28.913-13.252,28.913-28.913C251.784,421.647,239.134,408.998,222.871,408.998z M222.871,448.753
	c-6.024,0-10.842-4.819-10.842-10.842s4.819-10.842,10.842-10.842s10.842,4.819,10.842,10.842S228.894,448.753,222.871,448.753z"/>
<g>
	<circle style="fill:#2F4859;" cx="222.871" cy="437.911" r="10.842"/>
	<path style="fill:#2F4859;" d="M417.431,393.939c-24.094,0-43.972,19.878-43.972,43.972s19.878,43.972,43.972,43.972
		s43.972-19.878,43.972-43.972S442.127,393.939,417.431,393.939z M417.431,466.824c-16.263,0-28.913-13.252-28.913-28.913
		c0-16.264,13.252-28.913,28.913-28.913c16.264,0,28.913,13.252,28.913,28.913C446.946,454.174,433.694,466.824,417.431,466.824z"/>
</g>
<path style="fill:#3A556A;" d="M417.431,408.998c-16.263,0-28.913,13.252-28.913,28.913c0,16.264,13.252,28.913,28.913,28.913
	c16.264,0,28.913-13.252,28.913-28.913C446.946,421.647,433.694,408.998,417.431,408.998z M417.431,448.753
	c-6.024,0-10.842-4.819-10.842-10.842s4.819-10.842,10.842-10.842s10.842,4.819,10.842,10.842
	C428.875,443.934,423.454,448.753,417.431,448.753z"/>
<circle style="fill:#2F4859;" cx="417.431" cy="437.911" r="10.842"/>
<g>
</g>
<g>
</g>
<g>
</g>
<g>
</g>
<g>
</g>
<g>
</g>
<g>
</g>
<g>
</g>
<g>
</g>
<g>
</g>
<g>
</g>
<g>
</g>
<g>
</g>
<g>
</g>
<g>
</g>
</svg>
